<svg xmlns="http://www.w3.org/2000/svg" xmlns:xlink="http://www.w3.org/1999/xlink" width="12.7mm" height="12.7mm" viewBox="4010 3303 50 50"><title></title><style type="text/css">
*[layerid="1"] {stroke:#FF0000;fill:#FF0000;}
*[layerid="2"] {stroke:#0000FF;fill:#0000FF;}
*[layerid="3"] {stroke:#FFCC00;fill:#FFCC00;}
*[layerid="4"] {stroke:#66CC33;fill:#66CC33;}
*[layerid="5"] {stroke:#808080;fill:#808080;}
*[layerid="6"] {stroke:#800000;fill:#800000;}
*[layerid="7"] {stroke:#800080;fill:#800080;stroke-opacity:0.7;fill-opacity:0.7;}
*[layerid="8"] {stroke:#AA00FF;fill:#AA00FF;stroke-opacity:0.7;fill-opacity:0.7;}
*[layerid="9"] {stroke:#6464FF;fill:#6464FF;}
*[layerid="10"] {stroke:#FF00FF;fill:#FF00FF;}
*[layerid="11"] {stroke:#C0C0C0;fill:#C0C0C0;}
*[layerid="12"] {stroke:#FFFFFF;fill:#FFFFFF;}
*[layerid="13"] {stroke:#33CC99;fill:#33CC99;}
*[layerid="14"] {stroke:#5555FF;fill:#5555FF;}
*[layerid="15"] {stroke:#F022F0;fill:#F022F0;}
*[layerid="19"] {stroke:#66CCFF;fill:#66CCFF;}
*[layerid="21"] {stroke:#999966;fill:#999966;}
*[layerid="22"] {stroke:#008000;fill:#008000;}
*[layerid="23"] {stroke:#00FF00;fill:#00FF00;}
*[layerid="24"] {stroke:#BC8E00;fill:#BC8E00;}
*[layerid="25"] {stroke:#70DBFA;fill:#70DBFA;}
*[layerid="26"] {stroke:#00CC66;fill:#00CC66;}
*[layerid="27"] {stroke:#9966FF;fill:#9966FF;}
*[layerid="28"] {stroke:#800080;fill:#800080;}
*[layerid="29"] {stroke:#008080;fill:#008080;}
*[layerid="30"] {stroke:#15935F;fill:#15935F;}
*[layerid="31"] {stroke:#000080;fill:#000080;}
*[layerid="32"] {stroke:#00B400;fill:#00B400;}
*[layerid="33"] {stroke:#2E4756;fill:#2E4756;}
*[layerid="34"] {stroke:#99842F;fill:#99842F;}
*[layerid="35"] {stroke:#FFFFAA;fill:#FFFFAA;}
*[layerid="36"] {stroke:#99842F;fill:#99842F;}
*[layerid="37"] {stroke:#2E4756;fill:#2E4756;}
*[layerid="38"] {stroke:#3535FF;fill:#3535FF;}
*[layerid="39"] {stroke:#8000BC;fill:#8000BC;}
*[layerid="40"] {stroke:#43AE5F;fill:#43AE5F;}
*[layerid="41"] {stroke:#C3ECCE;fill:#C3ECCE;}
*[layerid="42"] {stroke:#728978;fill:#728978;}
*[layerid="43"] {stroke:#39503F;fill:#39503F;}
*[layerid="44"] {stroke:#0C715D;fill:#0C715D;}
*[layerid="45"] {stroke:#5A8A80;fill:#5A8A80;}
*[layerid="46"] {stroke:#2B937E;fill:#2B937E;}
*[layerid="47"] {stroke:#23999D;fill:#23999D;}
*[layerid="48"] {stroke:#45B4E3;fill:#45B4E3;}
*[layerid="49"] {stroke:#215DA1;fill:#215DA1;}
*[layerid="50"] {stroke:#4564D7;fill:#4564D7;}
*[layerid="51"] {stroke:#6969E9;fill:#6969E9;}
*[layerid="52"] {stroke:#9069E9;fill:#9069E9;}
*[layerid="99"] {stroke:#00CCCC;fill:#00CCCC;stroke-opacity:0.6;fill-opacity:0.6;}
*[layerid="100"] {stroke:#CC9999;fill:#CC9999;}
*[layerid="101"] {stroke:#66FFCC;fill:#66FFCC;}
*[layerid="Hole"] {stroke:#222222;fill:#222222;}
*[layerid="DRCError"] {stroke:#FAD609;fill:#FAD609;}
*[fill="none"] {fill: none;}
*[stroke="none"] {stroke: none;}
path, polyline, polygon, line {stroke-linecap:round;}
g[c_partid="part_pad"][layerid="1"] ellipse:not([c_etype="pad_outer"]) {fill:#FF0000;}
g[c_partid="part_pad"][layerid="1"] polygon:not([c_etype="pad_outer"]) {fill:#FF0000;}
g[c_partid="part_pad"][layerid="1"] polyline:not([c_etype="pad_outer"]) {stroke:#FF0000;}
g[c_partid="part_pad"][layerid="2"] ellipse:not([c_etype="pad_outer"]) {fill:#0000FF;}
g[c_partid="part_pad"][layerid="2"] polygon:not([c_etype="pad_outer"]) {fill:#0000FF;}
g[c_partid="part_pad"][layerid="2"] polyline:not([c_etype="pad_outer"]) {stroke:#0000FF;}
g[c_partid="part_pad"][layerid="11"] ellipse:not([c_etype="pad_outer"]) {fill:#C0C0C0;}
g[c_partid="part_pad"][layerid="11"] polygon:not([c_etype="pad_outer"]) {fill:#C0C0C0;}
g[c_partid="part_pad"][layerid="11"] polyline:not([c_etype="pad_outer"]) {stroke:#C0C0C0;}
g[c_partid="part_pad"][layerid="11"] circle {fill:#222222;}
g[c_partid="part_pad"][layerid="11"] > polyline:nth-of-type(2) {stroke:#222222;}
g[c_partid="part_pad"][layerid="11"][c_shape="ELLIPSE"]  polyline:nth-last-of-type(1) {stroke:#222222;}
g[c_partid="part_pad"][layerid="11"][c_shape="RECT"]  polyline:nth-last-of-type(1) {stroke:#222222;}
g[c_partid="part_pad"][layerid="11"][c_shape="POLYGON"]  polyline:nth-last-of-type(1) {stroke:#222222;}
g[c_partid="part_via"] > * + circle, #gCurParts g[c_partid="part_via"] > * + circle {fill:#222222;}
g[c_partid="part_pad"] > polygon[c_etype="pad_outer"], #gCurParts g[c_partid="part_pad"] > polygon[c_etype="pad_outer"] {stroke-linejoin: round;stroke-miterlimit: 100;}
g[c_partid="part_hole"] > circle {fill: #222222;}path, polyline, polygon {stroke-linejoin:round;}
rect, circle, ellipse, polyline, line, polygon, path {shape-rendering:crispEdges;}
</style>
<rect x="4010" y="3303" width="50" height="50" fill="#000000" stroke="none"/><polyline points="4025 3338 4025.563 3337.437 4035 3337.437" stroke-width="2"  stroke-linecap="round" fill="none" layerid="1" net="H1_3" id="gge543" locked="0" /><polyline points="4025 3328 4026.563 3329.563 4035 3329.563" stroke-width="2"  stroke-linecap="round" fill="none" layerid="1" net="GND" id="gge540" locked="0" /><polyline points="4025 3338 4026.5 3336.5" stroke-width="2"  stroke-linecap="round" fill="none" layerid="1" net="H1_3" id="gge501" locked="0" /><polyline points="4025 3328 4025.626 3328.626" stroke-width="2"  stroke-linecap="round" fill="none" layerid="1" net="GND" id="gge498" locked="0" /><polyline points="4025 3318 4045 3318" stroke-width="2"  stroke-linecap="round" fill="none" layerid="1" net="+5V" id="gge444" locked="0" /><g c_partid="part_pad" c_etype="pinpart" c_origin="4035,3337.437" layerid="1" number="2" net="H1_3" plated ="Y"  id="gge594" locked="0" c_rotation="270" c_width="4.4588" c_height="5.4213" title="H1_3" c_shape="RECT" pasteexpansion="-393.7008" solderexpansion="0.2000"><polygon  c_etype="pad_shell" points="4032.2894 3335.2078 4037.7106 3335.2078 4037.7106 3339.6666 4032.2894 3339.6666" layerid="1" stroke-width="0" /><circle c_etype="pad_hole" cx="4035" cy="3337.4372" r="0" layerid="1" stroke-width="0"/></g><g c_partid="part_pad" c_etype="pinpart" c_origin="4035,3329.563" layerid="1" number="1" net="GND" plated ="Y"  id="gge606" locked="0" c_rotation="270" c_width="4.4588" c_height="5.4213" title="GND" c_shape="RECT" pasteexpansion="-393.7008" solderexpansion="0.2000"><polygon  c_etype="pad_shell" points="4032.2894 3331.7922 4037.7106 3331.7922 4037.7106 3327.3334 4032.2894 3327.3334" layerid="1" stroke-width="0" /><circle c_etype="pad_hole" cx="4035" cy="3329.5628" r="0" layerid="1" stroke-width="0"/></g><g c_partid="part_pad" c_etype="pinpart" c_origin="4025,3318" layerid="11" number="1" net="+5V" plated ="Y"  id="gge45" locked="0" c_rotation="270" c_width="6.2" c_height="6.2" title="+5V" c_shape="RECT" pasteexpansion="0" solderexpansion="0.2"><polygon  c_etype="pad_shell" points="4028.1 3314.9 4028.1 3321.1 4021.9 3321.1 4021.9 3314.9" layerid="11" stroke-width="0" /><circle c_etype="pad_hole" cx="4025" cy="3318" r="1.75" layerid="11" stroke-width="0"/></g><g c_partid="part_pad" c_etype="pinpart" c_origin="4025,3328" layerid="11" number="2" net="GND" plated ="Y"  id="gge60" locked="0" c_rotation="270" c_width="6.2" c_height="6.2" title="GND" c_shape="ELLIPSE" pasteexpansion="0" solderexpansion="0.2"><ellipse c_etype="pad_shell" cx="4025" cy="3328" rx="3.1" ry="3.1" layerid="11" stroke-width="0"/><circle c_etype="pad_hole" cx="4025" cy="3328" r="1.75" layerid="11" stroke-width="0"/></g><g c_partid="part_pad" c_etype="pinpart" c_origin="4025,3338" layerid="11" number="3" net="H1_3" plated ="Y"  id="gge75" locked="0" c_rotation="270" c_width="6.2" c_height="6.2" title="H1_3" c_shape="ELLIPSE" pasteexpansion="0" solderexpansion="0.2"><ellipse c_etype="pad_shell" cx="4025" cy="3338" rx="3.1" ry="3.1" layerid="11" stroke-width="0"/><circle c_etype="pad_hole" cx="4025" cy="3338" r="1.8" layerid="11" stroke-width="0"/></g><g c_partid="part_pad" c_etype="pinpart" c_origin="4045,3318" layerid="11" number="1" net="+5V" plated ="Y"  id="gge132" locked="0" c_rotation="270" c_width="6.6929" c_height="6.2" title="+5V" c_shape="RECT" pasteexpansion="0" solderexpansion="0.2"><polygon  c_etype="pad_shell" points="4048.1 3314.6536 4048.1 3321.3465 4041.9 3321.3465 4041.9 3314.6536" layerid="11" stroke-width="0" /><circle c_etype="pad_hole" cx="4045" cy="3318" r="2.1654" layerid="11" stroke-width="0"/></g><g c_partid="part_pad" c_etype="pinpart" c_origin="4045,3328" layerid="11" number="2" net="J1_2" plated ="Y"  id="gge147" locked="0" c_rotation="270" c_width="6.6929" c_height="6.6929" title="J1_2" c_shape="ELLIPSE" pasteexpansion="0" solderexpansion="0.2"><ellipse c_etype="pad_shell" cx="4045" cy="3328" rx="3.34645" ry="3.34645" layerid="11" stroke-width="0"/><circle c_etype="pad_hole" cx="4045" cy="3328" r="2.1654" layerid="11" stroke-width="0"/></g><g c_partid="part_via" c_etype="pinpart" c_shapetype="group" net="GND" c_origin="4034.5,3329.563" layerid="11" id="gge465" locked="0" solderexpansion=""><circle cx="4034.5" cy="3329.563" r="1.2" stroke-width="0" c_etype="pad_shell"/><circle cx="4034.5" cy="3329.563" r="0.6"  stroke-width="0" c_etype="pad_hole"/></g><g c_partid="part_via" c_etype="pinpart" c_shapetype="group" net="H1_3" c_origin="4034.5,3337.437" layerid="11" id="gge477" locked="0" solderexpansion=""><circle cx="4034.5" cy="3337.437" r="1.2" stroke-width="0" c_etype="pad_shell"/><circle cx="4034.5" cy="3337.437" r="0.6"  stroke-width="0" c_etype="pad_hole"/></g><polyline points="4030 3333 4030 3343 4020.1 3343 4020.1 3313 4030 3313 4030 3333" stroke-width="0.8"  stroke-linecap="round" fill="none" layerid="3" net="" id="gge36" locked="0" /><polyline points="4050 3333 4050 3320.5" stroke-width="0.79921"  stroke-linecap="round" fill="none" layerid="3" net="" id="gge108" locked="0" /><polyline points="4050 3333 4040 3333 4040 3313 4050 3313 4050 3320.5" stroke-width="0.8"  stroke-linecap="round" fill="none" layerid="3" net="" id="gge111" locked="0" /><polyline points="4031.3894 3335.3748 4031.3894 3340.4336 4038.6106 3340.4336 4038.6106 3335.3748" stroke-width="0.6"  stroke-linecap="round" fill="none" layerid="3" net="" id="gge579" locked="0" /><polyline points="4031.3894 3331.6252 4031.3894 3326.5664 4038.6106 3326.5664 4038.6106 3331.6252" stroke-width="0.6"  stroke-linecap="round" fill="none" layerid="3" net="" id="gge582" locked="0" /><g c_partid="part_pcbtext" c_etype="" c_origin="4041.3501,3382.1899" c_rotation="90" c_mirror="" id="gge9" locked="0" layerid="3" c_shapetype="group" display="none"><path c_fontsize="4.5" c_fontfamily="" c_text="HDR-F-2.54_1x3" d="M 4036.8101 3382.1899 L 4041.1001 3382.1899 M 4036.8101 3379.3299 L 4041.1001 3379.3299 M 4038.8501 3382.1899 L 4038.8501 3379.3299 M 4036.8101 3377.9799 L 4041.1001 3377.9799 M 4036.8101 3377.9799 L 4036.8101 3376.5399 L 4037.0101 3375.9299 L 4037.4201 3375.5199 L 4037.8301 3375.3199 L 4038.4501 3375.1099 L 4039.4701 3375.1099 L 4040.0801 3375.3199 L 4040.4901 3375.5199 L 4040.9001 3375.9299 L 4041.1001 3376.5399 L 4041.1001 3377.9799 M 4036.8101 3373.7599 L 4041.1001 3373.7599 M 4036.8101 3373.7599 L 4036.8101 3371.9199 L 4037.0101 3371.3099 L 4037.2201 3371.0999 L 4037.6301 3370.8999 L 4038.0401 3370.8999 L 4038.4501 3371.0999 L 4038.6501 3371.3099 L 4038.8501 3371.9199 L 4038.8501 3373.7599 M 4038.8501 3372.3299 L 4041.1001 3370.8999 M 4039.2601 3369.5499 L 4039.2601 3365.8699 M 4036.8101 3364.5199 L 4041.1001 3364.5199 M 4036.8101 3364.5199 L 4036.8101 3361.8599 M 4038.8501 3364.5199 L 4038.8501 3362.8799 M 4039.2601 3360.5099 L 4039.2601 3356.8299 M 4037.8301 3355.2699 L 4037.6301 3355.2699 L 4037.2201 3355.0699 L 4037.0101 3354.8599 L 4036.8101 3354.4499 L 4036.8101 3353.6399 L 4037.0101 3353.2299 L 4037.2201 3353.0199 L 4037.6301 3352.8199 L 4038.0401 3352.8199 L 4038.4501 3353.0199 L 4039.0601 3353.4299 L 4041.1001 3355.4799 L 4041.1001 3352.6099 M 4040.0801 3351.0599 L 4040.2901 3351.2599 L 4040.4901 3351.0599 L 4040.2901 3350.8499 L 4040.0801 3351.0599 M 4036.8101 3347.0499 L 4036.8101 3349.0899 L 4038.6501 3349.2999 L 4038.4501 3349.0899 L 4038.2401 3348.4799 L 4038.2401 3347.8699 L 4038.4501 3347.2499 L 4038.8501 3346.8399 L 4039.4701 3346.6399 L 4039.8801 3346.6399 L 4040.4901 3346.8399 L 4040.9001 3347.2499 L 4041.1001 3347.8699 L 4041.1001 3348.4799 L 4040.9001 3349.0899 L 4040.7001 3349.2999 L 4040.2901 3349.4999 M 4036.8101 3343.2399 L 4039.6701 3345.2899 L 4039.6701 3342.2199 M 4036.8101 3343.2399 L 4041.1001 3343.2399 M 4042.5401 3340.8699 L 4042.5401 3337.1899 M 4037.6301 3335.8399 L 4037.4201 3335.4299 L 4036.8101 3334.8199 L 4041.1001 3334.8199 M 4038.2401 3333.4699 L 4041.1001 3331.2199 M 4038.2401 3331.2199 L 4041.1001 3333.4699 M 4036.8101 3329.4599 L 4036.8101 3327.2099 L 4038.4501 3328.4399 L 4038.4501 3327.8199 L 4038.6501 3327.4099 L 4038.8501 3327.2099 L 4039.4701 3326.9999 L 4039.8801 3326.9999 L 4040.4901 3327.2099 L 4040.9001 3327.6199 L 4041.1001 3328.2299 L 4041.1001 3328.8399 L 4040.9001 3329.4599 L 4040.7001 3329.6599 L 4040.2901 3329.8699" fill="none"  stroke-width="0.6" c_note="note_name" /></g><g c_partid="part_pcbtext" c_etype="" c_origin="4031,3327" c_rotation="270" c_mirror="" id="gge15" locked="0" layerid="3" c_shapetype="group" display="none"><path c_fontsize="4.5" c_fontfamily="" c_text="H1" d="M 4035.54 3327 L 4031.25 3327 M 4035.54 3329.86 L 4031.25 3329.86 M 4033.5 3327 L 4033.5 3329.86 M 4034.72 3331.21 L 4034.93 3331.62 L 4035.54 3332.24 L 4031.25 3332.24" fill="none"  stroke-width="0.6" c_note="note_pre" /></g><g c_partid="part_pcbtext" c_etype="" c_origin="4060.8501,3378.3" c_rotation="90" c_mirror="" id="gge96" locked="0" layerid="3" c_shapetype="group" display="none"><path c_fontsize="4.5" c_fontfamily="" c_text="HDR-M-2.54_1x2" d="M 4056.3101 3378.3 L 4060.6001 3378.3 M 4056.3101 3375.44 L 4060.6001 3375.44 M 4058.3501 3378.3 L 4058.3501 3375.44 M 4056.3101 3374.09 L 4060.6001 3374.09 M 4056.3101 3374.09 L 4056.3101 3372.65 L 4056.5101 3372.04 L 4056.9201 3371.63 L 4057.3301 3371.43 L 4057.9501 3371.22 L 4058.9701 3371.22 L 4059.5801 3371.43 L 4059.9901 3371.63 L 4060.4001 3372.04 L 4060.6001 3372.65 L 4060.6001 3374.09 M 4056.3101 3369.87 L 4060.6001 3369.87 M 4056.3101 3369.87 L 4056.3101 3368.03 L 4056.5101 3367.42 L 4056.7201 3367.21 L 4057.1301 3367.01 L 4057.5401 3367.01 L 4057.9501 3367.21 L 4058.1501 3367.42 L 4058.3501 3368.03 L 4058.3501 3369.87 M 4058.3501 3368.44 L 4060.6001 3367.01 M 4058.7601 3365.66 L 4058.7601 3361.98 M 4056.3101 3360.63 L 4060.6001 3360.63 M 4056.3101 3360.63 L 4060.6001 3358.99 M 4056.3101 3357.35 L 4060.6001 3358.99 M 4056.3101 3357.35 L 4060.6001 3357.35 M 4058.7601 3356 L 4058.7601 3352.32 M 4057.3301 3350.77 L 4057.1301 3350.77 L 4056.7201 3350.56 L 4056.5101 3350.36 L 4056.3101 3349.95 L 4056.3101 3349.13 L 4056.5101 3348.72 L 4056.7201 3348.52 L 4057.1301 3348.31 L 4057.5401 3348.31 L 4057.9501 3348.52 L 4058.5601 3348.93 L 4060.6001 3350.97 L 4060.6001 3348.11 M 4059.5801 3346.55 L 4059.7901 3346.76 L 4059.9901 3346.55 L 4059.7901 3346.35 L 4059.5801 3346.55 M 4056.3101 3342.55 L 4056.3101 3344.59 L 4058.1501 3344.8 L 4057.9501 3344.59 L 4057.7401 3343.98 L 4057.7401 3343.36 L 4057.9501 3342.75 L 4058.3501 3342.34 L 4058.9701 3342.14 L 4059.3801 3342.14 L 4059.9901 3342.34 L 4060.4001 3342.75 L 4060.6001 3343.36 L 4060.6001 3343.98 L 4060.4001 3344.59 L 4060.2001 3344.8 L 4059.7901 3345 M 4056.3101 3338.74 L 4059.1701 3340.79 L 4059.1701 3337.72 M 4056.3101 3338.74 L 4060.6001 3338.74 M 4062.0401 3336.37 L 4062.0401 3332.69 M 4057.1301 3331.34 L 4056.9201 3330.93 L 4056.3101 3330.31 L 4060.6001 3330.31 M 4057.7401 3328.96 L 4060.6001 3326.71 M 4057.7401 3326.71 L 4060.6001 3328.96 M 4057.3301 3325.16 L 4057.1301 3325.16 L 4056.7201 3324.95 L 4056.5101 3324.75 L 4056.3101 3324.34 L 4056.3101 3323.52 L 4056.5101 3323.11 L 4056.7201 3322.91 L 4057.1301 3322.7 L 4057.5401 3322.7 L 4057.9501 3322.91 L 4058.5601 3323.32 L 4060.6001 3325.36 L 4060.6001 3322.5" fill="none"  stroke-width="0.6" c_note="note_name" /></g><g c_partid="part_pcbtext" c_etype="" c_origin="4050.5,3322.5" c_rotation="270" c_mirror="" id="gge102" locked="0" layerid="3" c_shapetype="group" display="none"><path c_fontsize="4.5" c_fontfamily="" c_text="J1" d="M 4055.04 3324.55 L 4051.77 3324.55 L 4051.15 3324.34 L 4050.95 3324.14 L 4050.75 3323.73 L 4050.75 3323.32 L 4050.95 3322.91 L 4051.15 3322.7 L 4051.77 3322.5 L 4052.18 3322.5 M 4054.22 3325.9 L 4054.43 3326.3 L 4055.04 3326.92 L 4050.75 3326.92" fill="none"  stroke-width="0.6" c_note="note_pre" /></g><g c_partid="part_pcbtext" c_etype="" c_origin="4051.79,3342.3401" c_rotation="90" c_mirror="" id="gge552" locked="0" layerid="3" c_shapetype="group" display="none"><path c_fontsize="4.5" c_fontfamily="" c_text="10k" d="M 4048.07 3342.3401 L 4047.86 3341.9301 L 4047.25 3341.3201 L 4051.54 3341.3201 M 4047.25 3338.7401 L 4047.45 3339.3501 L 4048.07 3339.7601 L 4049.09 3339.9701 L 4049.7 3339.9701 L 4050.73 3339.7601 L 4051.34 3339.3501 L 4051.54 3338.7401 L 4051.54 3338.3301 L 4051.34 3337.7201 L 4050.73 3337.3101 L 4049.7 3337.1001 L 4049.09 3337.1001 L 4048.07 3337.3101 L 4047.45 3337.7201 L 4047.25 3338.3301 L 4047.25 3338.7401 M 4047.25 3335.7501 L 4051.54 3335.7501 M 4048.68 3333.7101 L 4050.73 3335.7501 M 4049.91 3334.9401 L 4051.54 3333.5001" fill="none"  stroke-width="0.6" c_note="note_name" /></g><g c_partid="part_pcbtext" c_etype="" c_origin="4040,3333.5" c_rotation="270" c_mirror="" id="gge558" locked="0" layerid="3" c_shapetype="group" display="none"><path c_fontsize="4.5" c_fontfamily="" c_text="R1" d="M 4044.54 3333.5 L 4040.25 3333.5 M 4044.54 3333.5 L 4044.54 3335.34 L 4044.34 3335.95 L 4044.13 3336.16 L 4043.72 3336.36 L 4043.31 3336.36 L 4042.9 3336.16 L 4042.7 3335.95 L 4042.5 3335.34 L 4042.5 3333.5 M 4042.5 3334.93 L 4040.25 3336.36 M 4043.72 3337.71 L 4043.93 3338.12 L 4044.54 3338.74 L 4040.25 3338.74" fill="none"  stroke-width="0.6" c_note="note_pre" /></g><polyline points="4020 3313 4050 3313 4050 3343 4020 3343 4020 3313" stroke-width="1"  stroke-linecap="round" fill="none" layerid="10" net="" id="gge441" locked="0" /></svg>