<svg xmlns="http://www.w3.org/2000/svg" xmlns:xlink="http://www.w3.org/1999/xlink" width="12.7mm" height="12.7mm" viewBox="4010 3303 50 50"><title></title><style type="text/css">
*[layerid="1"] {stroke:#FF0000;fill:#FF0000;}
*[layerid="2"] {stroke:#0000FF;fill:#0000FF;}
*[layerid="3"] {stroke:#FFCC00;fill:#FFCC00;}
*[layerid="4"] {stroke:#66CC33;fill:#66CC33;}
*[layerid="5"] {stroke:#808080;fill:#808080;}
*[layerid="6"] {stroke:#800000;fill:#800000;}
*[layerid="7"] {stroke:#800080;fill:#800080;stroke-opacity:0.7;fill-opacity:0.7;}
*[layerid="8"] {stroke:#AA00FF;fill:#AA00FF;stroke-opacity:0.7;fill-opacity:0.7;}
*[layerid="9"] {stroke:#6464FF;fill:#6464FF;}
*[layerid="10"] {stroke:#FF00FF;fill:#FF00FF;}
*[layerid="11"] {stroke:#C0C0C0;fill:#C0C0C0;}
*[layerid="12"] {stroke:#FFFFFF;fill:#FFFFFF;}
*[layerid="13"] {stroke:#33CC99;fill:#33CC99;}
*[layerid="14"] {stroke:#5555FF;fill:#5555FF;}
*[layerid="15"] {stroke:#F022F0;fill:#F022F0;}
*[layerid="19"] {stroke:#66CCFF;fill:#66CCFF;}
*[layerid="21"] {stroke:#999966;fill:#999966;}
*[layerid="22"] {stroke:#008000;fill:#008000;}
*[layerid="23"] {stroke:#00FF00;fill:#00FF00;}
*[layerid="24"] {stroke:#BC8E00;fill:#BC8E00;}
*[layerid="25"] {stroke:#70DBFA;fill:#70DBFA;}
*[layerid="26"] {stroke:#00CC66;fill:#00CC66;}
*[layerid="27"] {stroke:#9966FF;fill:#9966FF;}
*[layerid="28"] {stroke:#800080;fill:#800080;}
*[layerid="29"] {stroke:#008080;fill:#008080;}
*[layerid="30"] {stroke:#15935F;fill:#15935F;}
*[layerid="31"] {stroke:#000080;fill:#000080;}
*[layerid="32"] {stroke:#00B400;fill:#00B400;}
*[layerid="33"] {stroke:#2E4756;fill:#2E4756;}
*[layerid="34"] {stroke:#99842F;fill:#99842F;}
*[layerid="35"] {stroke:#FFFFAA;fill:#FFFFAA;}
*[layerid="36"] {stroke:#99842F;fill:#99842F;}
*[layerid="37"] {stroke:#2E4756;fill:#2E4756;}
*[layerid="38"] {stroke:#3535FF;fill:#3535FF;}
*[layerid="39"] {stroke:#8000BC;fill:#8000BC;}
*[layerid="40"] {stroke:#43AE5F;fill:#43AE5F;}
*[layerid="41"] {stroke:#C3ECCE;fill:#C3ECCE;}
*[layerid="42"] {stroke:#728978;fill:#728978;}
*[layerid="43"] {stroke:#39503F;fill:#39503F;}
*[layerid="44"] {stroke:#0C715D;fill:#0C715D;}
*[layerid="45"] {stroke:#5A8A80;fill:#5A8A80;}
*[layerid="46"] {stroke:#2B937E;fill:#2B937E;}
*[layerid="47"] {stroke:#23999D;fill:#23999D;}
*[layerid="48"] {stroke:#45B4E3;fill:#45B4E3;}
*[layerid="49"] {stroke:#215DA1;fill:#215DA1;}
*[layerid="50"] {stroke:#4564D7;fill:#4564D7;}
*[layerid="51"] {stroke:#6969E9;fill:#6969E9;}
*[layerid="52"] {stroke:#9069E9;fill:#9069E9;}
*[layerid="99"] {stroke:#00CCCC;fill:#00CCCC;stroke-opacity:0.6;fill-opacity:0.6;}
*[layerid="100"] {stroke:#CC9999;fill:#CC9999;}
*[layerid="101"] {stroke:#66FFCC;fill:#66FFCC;}
*[layerid="Hole"] {stroke:#222222;fill:#222222;}
*[layerid="DRCError"] {stroke:#FAD609;fill:#FAD609;}
*[fill="none"] {fill: none;}
*[stroke="none"] {stroke: none;}
path, polyline, polygon, line {stroke-linecap:round;}
g[c_partid="part_pad"][layerid="1"] ellipse:not([c_etype="pad_outer"]) {fill:#FF0000;}
g[c_partid="part_pad"][layerid="1"] polygon:not([c_etype="pad_outer"]) {fill:#FF0000;}
g[c_partid="part_pad"][layerid="1"] polyline:not([c_etype="pad_outer"]) {stroke:#FF0000;}
g[c_partid="part_pad"][layerid="2"] ellipse:not([c_etype="pad_outer"]) {fill:#0000FF;}
g[c_partid="part_pad"][layerid="2"] polygon:not([c_etype="pad_outer"]) {fill:#0000FF;}
g[c_partid="part_pad"][layerid="2"] polyline:not([c_etype="pad_outer"]) {stroke:#0000FF;}
g[c_partid="part_pad"][layerid="11"] ellipse:not([c_etype="pad_outer"]) {fill:#C0C0C0;}
g[c_partid="part_pad"][layerid="11"] polygon:not([c_etype="pad_outer"]) {fill:#C0C0C0;}
g[c_partid="part_pad"][layerid="11"] polyline:not([c_etype="pad_outer"]) {stroke:#C0C0C0;}
g[c_partid="part_pad"][layerid="11"] circle {fill:#222222;}
g[c_partid="part_pad"][layerid="11"] > polyline:nth-of-type(2) {stroke:#222222;}
g[c_partid="part_pad"][layerid="11"][c_shape="ELLIPSE"]  polyline:nth-last-of-type(1) {stroke:#222222;}
g[c_partid="part_pad"][layerid="11"][c_shape="RECT"]  polyline:nth-last-of-type(1) {stroke:#222222;}
g[c_partid="part_pad"][layerid="11"][c_shape="POLYGON"]  polyline:nth-last-of-type(1) {stroke:#222222;}
g[c_partid="part_via"] > * + circle, #gCurParts g[c_partid="part_via"] > * + circle {fill:#222222;}
g[c_partid="part_pad"] > polygon[c_etype="pad_outer"], #gCurParts g[c_partid="part_pad"] > polygon[c_etype="pad_outer"] {stroke-linejoin: round;stroke-miterlimit: 100;}
g[c_partid="part_hole"] > circle {fill: #222222;}path, polyline, polygon {stroke-linejoin:round;}
rect, circle, ellipse, polyline, line, polygon, path {shape-rendering:crispEdges;}
</style>
<rect x="4010" y="3303" width="50" height="50" fill="#000000" stroke="none"/><polyline points="4045 3328 4042.937 3330.063 4042.937 3333.5" stroke-width="2"  stroke-linecap="round" fill="none" layerid="2" net="J1_2" id="gge453" locked="0" /><g c_partid="part_pad" c_etype="pinpart" c_origin="4035.063,3337.24" layerid="2" number="1" net="H1_3" plated ="Y"  id="gge222" locked="0" c_rotation="0" c_width="4.9213" c_height="2.7559" title="H1_3" c_shape="RECT" pasteexpansion="0.0000" solderexpansion="0.2000"><polygon  c_etype="pad_shell" points="4037.5236 3335.862 4032.6024 3335.862 4032.6024 3338.618 4037.5236 3338.618" layerid="2" stroke-width="0" /><circle c_etype="pad_hole" cx="4035.0632" cy="3337.2402" r="0" layerid="2" stroke-width="0"/></g><g c_partid="part_pad" c_etype="pinpart" c_origin="4035.063,3329.76" layerid="2" number="2" net="GND" plated ="Y"  id="gge237" locked="0" c_rotation="0" c_width="4.9213" c_height="2.7559" title="GND" c_shape="RECT" pasteexpansion="0.0000" solderexpansion="0.2000"><polygon  c_etype="pad_shell" points="4037.5236 3328.3821 4032.6024 3328.3821 4032.6024 3331.138 4037.5236 3331.138" layerid="2" stroke-width="0" /><circle c_etype="pad_hole" cx="4035.0632" cy="3329.7598" r="0" layerid="2" stroke-width="0"/></g><g c_partid="part_pad" c_etype="pinpart" c_origin="4042.937,3333.5" layerid="2" number="3" net="J1_2" plated ="Y"  id="gge252" locked="0" c_rotation="0" c_width="4.9213" c_height="2.7559" title="J1_2" c_shape="RECT" pasteexpansion="0.0000" solderexpansion="0.2000"><polygon  c_etype="pad_shell" points="4045.3976 3332.1221 4040.4764 3332.1221 4040.4764 3334.878 4045.3976 3334.878" layerid="2" stroke-width="0" /><circle c_etype="pad_hole" cx="4042.9368" cy="3333.5" r="0" layerid="2" stroke-width="0"/></g><polyline points="4036.1409 3327.4913 4041.8591 3327.4913 4041.8591 3331.5528" stroke-width="0.6"  stroke-linecap="round" fill="none" layerid="4" net="" id="gge204" locked="0" /><polyline points="4036.1409 3339.5087 4041.8591 3339.5087 4041.8591 3335.4472" stroke-width="0.6"  stroke-linecap="round" fill="none" layerid="4" net="" id="gge207" locked="0" /><polyline points="4036.1409 3331.7071 4036.1409 3335.2929" stroke-width="0.6"  stroke-linecap="round" fill="none" layerid="4" net="" id="gge210" locked="0" /><g c_partid="part_pcbtext" c_etype="" c_origin="4039,3318.5" c_rotation="0" c_mirror="1" id="gge168" locked="0" layerid="4" c_shapetype="group" display="none"><path c_fontsize="4.5" c_fontfamily="" c_text="SI2306" d="M 4036.14 3314.57 L 4036.55 3314.16 L 4037.16 3313.96 L 4037.98 3313.96 L 4038.59 3314.16 L 4039 3314.57 L 4039 3314.98 L 4038.8 3315.39 L 4038.59 3315.6 L 4038.18 3315.8 L 4036.95 3316.21 L 4036.55 3316.41 L 4036.34 3316.62 L 4036.14 3317.03 L 4036.14 3317.64 L 4036.55 3318.05 L 4037.16 3318.25 L 4037.98 3318.25 L 4038.59 3318.05 L 4039 3317.64 M 4034.79 3313.96 L 4034.79 3318.25 M 4033.23 3314.98 L 4033.23 3314.78 L 4033.03 3314.37 L 4032.82 3314.16 L 4032.41 3313.96 L 4031.6 3313.96 L 4031.19 3314.16 L 4030.98 3314.37 L 4030.78 3314.78 L 4030.78 3315.19 L 4030.98 3315.6 L 4031.39 3316.21 L 4033.44 3318.25 L 4030.57 3318.25 M 4028.81 3313.96 L 4026.56 3313.96 L 4027.79 3315.6 L 4027.18 3315.6 L 4026.77 3315.8 L 4026.56 3316 L 4026.36 3316.62 L 4026.36 3317.03 L 4026.56 3317.64 L 4026.97 3318.05 L 4027.59 3318.25 L 4028.2 3318.25 L 4028.81 3318.05 L 4029.02 3317.85 L 4029.22 3317.44 M 4023.78 3313.96 L 4024.4 3314.16 L 4024.8 3314.78 L 4025.01 3315.8 L 4025.01 3316.41 L 4024.8 3317.44 L 4024.4 3318.05 L 4023.78 3318.25 L 4023.37 3318.25 L 4022.76 3318.05 L 4022.35 3317.44 L 4022.15 3316.41 L 4022.15 3315.8 L 4022.35 3314.78 L 4022.76 3314.16 L 4023.37 3313.96 L 4023.78 3313.96 M 4018.34 3314.57 L 4018.55 3314.16 L 4019.16 3313.96 L 4019.57 3313.96 L 4020.18 3314.16 L 4020.59 3314.78 L 4020.8 3315.8 L 4020.8 3316.82 L 4020.59 3317.64 L 4020.18 3318.05 L 4019.57 3318.25 L 4019.36 3318.25 L 4018.75 3318.05 L 4018.34 3317.64 L 4018.14 3317.03 L 4018.14 3316.82 L 4018.34 3316.21 L 4018.75 3315.8 L 4019.36 3315.6 L 4019.57 3315.6 L 4020.18 3315.8 L 4020.59 3316.21 L 4020.8 3316.82" fill="none"  stroke-width="0.6" c_note="note_name" /></g><g c_partid="part_pcbtext" c_etype="" c_origin="4039,3325.5" c_rotation="0" c_mirror="1" id="gge174" locked="0" layerid="4" c_shapetype="group" display="none"><path c_fontsize="4.5" c_fontfamily="" c_text="Q1" d="M 4037.77 3320.96 L 4038.18 3321.16 L 4038.59 3321.57 L 4038.8 3321.98 L 4039 3322.6 L 4039 3323.62 L 4038.8 3324.23 L 4038.59 3324.64 L 4038.18 3325.05 L 4037.77 3325.25 L 4036.95 3325.25 L 4036.55 3325.05 L 4036.14 3324.64 L 4035.93 3324.23 L 4035.73 3323.62 L 4035.73 3322.6 L 4035.93 3321.98 L 4036.14 3321.57 L 4036.55 3321.16 L 4036.95 3320.96 L 4037.77 3320.96 M 4037.16 3324.44 L 4035.93 3325.66 M 4034.38 3321.78 L 4033.97 3321.57 L 4033.35 3320.96 L 4033.35 3325.25" fill="none"  stroke-width="0.6" c_note="note_pre" /></g><g c_partid="part_pad" c_etype="pinpart" c_origin="4025,3318" layerid="11" number="1" net="+5V" plated ="Y"  id="gge45" locked="0" c_rotation="270" c_width="6.2" c_height="6.2" title="+5V" c_shape="RECT" pasteexpansion="0" solderexpansion="0.2"><polygon  c_etype="pad_shell" points="4028.1 3314.9 4028.1 3321.1 4021.9 3321.1 4021.9 3314.9" layerid="11" stroke-width="0" /><circle c_etype="pad_hole" cx="4025" cy="3318" r="1.75" layerid="11" stroke-width="0"/></g><g c_partid="part_pad" c_etype="pinpart" c_origin="4025,3328" layerid="11" number="2" net="GND" plated ="Y"  id="gge60" locked="0" c_rotation="270" c_width="6.2" c_height="6.2" title="GND" c_shape="ELLIPSE" pasteexpansion="0" solderexpansion="0.2"><ellipse c_etype="pad_shell" cx="4025" cy="3328" rx="3.1" ry="3.1" layerid="11" stroke-width="0"/><circle c_etype="pad_hole" cx="4025" cy="3328" r="1.75" layerid="11" stroke-width="0"/></g><g c_partid="part_pad" c_etype="pinpart" c_origin="4025,3338" layerid="11" number="3" net="H1_3" plated ="Y"  id="gge75" locked="0" c_rotation="270" c_width="6.2" c_height="6.2" title="H1_3" c_shape="ELLIPSE" pasteexpansion="0" solderexpansion="0.2"><ellipse c_etype="pad_shell" cx="4025" cy="3338" rx="3.1" ry="3.1" layerid="11" stroke-width="0"/><circle c_etype="pad_hole" cx="4025" cy="3338" r="1.8" layerid="11" stroke-width="0"/></g><g c_partid="part_pad" c_etype="pinpart" c_origin="4045,3318" layerid="11" number="1" net="+5V" plated ="Y"  id="gge132" locked="0" c_rotation="270" c_width="6.6929" c_height="6.2" title="+5V" c_shape="RECT" pasteexpansion="0" solderexpansion="0.2"><polygon  c_etype="pad_shell" points="4048.1 3314.6536 4048.1 3321.3465 4041.9 3321.3465 4041.9 3314.6536" layerid="11" stroke-width="0" /><circle c_etype="pad_hole" cx="4045" cy="3318" r="2.1654" layerid="11" stroke-width="0"/></g><g c_partid="part_pad" c_etype="pinpart" c_origin="4045,3328" layerid="11" number="2" net="J1_2" plated ="Y"  id="gge147" locked="0" c_rotation="270" c_width="6.6929" c_height="6.6929" title="J1_2" c_shape="ELLIPSE" pasteexpansion="0" solderexpansion="0.2"><ellipse c_etype="pad_shell" cx="4045" cy="3328" rx="3.34645" ry="3.34645" layerid="11" stroke-width="0"/><circle c_etype="pad_hole" cx="4045" cy="3328" r="2.1654" layerid="11" stroke-width="0"/></g><g c_partid="part_via" c_etype="pinpart" c_shapetype="group" net="GND" c_origin="4034.5,3329.563" layerid="11" id="gge465" locked="0" solderexpansion=""><circle cx="4034.5" cy="3329.563" r="1.2" stroke-width="0" c_etype="pad_shell"/><circle cx="4034.5" cy="3329.563" r="0.6"  stroke-width="0" c_etype="pad_hole"/></g><g c_partid="part_via" c_etype="pinpart" c_shapetype="group" net="H1_3" c_origin="4034.5,3337.437" layerid="11" id="gge477" locked="0" solderexpansion=""><circle cx="4034.5" cy="3337.437" r="1.2" stroke-width="0" c_etype="pad_shell"/><circle cx="4034.5" cy="3337.437" r="0.6"  stroke-width="0" c_etype="pad_hole"/></g><polyline points="4020 3313 4050 3313 4050 3343 4020 3343 4020 3313" stroke-width="1"  stroke-linecap="round" fill="none" layerid="10" net="" id="gge441" locked="0" /></svg>